<?xml version="1.0" encoding="UTF-8"?>
<svg xmlns="http://www.w3.org/2000/svg" xmlns:xlink="http://www.w3.org/1999/xlink" version="1.1" viewBox="0 0 821.02 918.48">
  <!-- Generator: Adobe Illustrator 29.3.1, SVG Export Plug-In . SVG Version: 2.1.0 Build 151)  -->
  <defs>
    <style>
      .st0 {
        fill: #f1f1f1;
      }

      .st1 {
        fill: #e0e0e0;
      }

      .st2 {
        fill: #dfdfdf;
      }

      .st3 {
        fill: #d6d6d6;
      }

      .st4 {
        fill: url(#linear-gradient2);
      }

      .st5 {
        fill: url(#linear-gradient1);
      }

      .st6 {
        fill: url(#linear-gradient9);
      }

      .st7 {
        fill: url(#linear-gradient3);
      }

      .st8 {
        fill: url(#linear-gradient6);
      }

      .st9 {
        fill: url(#linear-gradient8);
      }

      .st10 {
        fill: url(#linear-gradient7);
      }

      .st11 {
        fill: url(#linear-gradient5);
      }

      .st12 {
        fill: url(#linear-gradient4);
      }

      .st13 {
        fill: #eaeaea;
      }

      .st14 {
        fill: #e3e3e3;
      }

      .st15 {
        fill: #d2d2d2;
      }

      .st16 {
        fill: #e6e6e6;
      }

      .st17 {
        fill: url(#linear-gradient11);
      }

      .st18 {
        fill: url(#linear-gradient10);
      }

      .st19 {
        fill: #d0d0d0;
      }

      .st20 {
        fill: #e2e2e2;
      }

      .st21 {
        fill: #efefef;
      }

      .st22 {
        fill: #e4e4e4;
      }

      .st23 {
        fill: #f6f6f6;
      }

      .st24 {
        fill: #ebebeb;
      }

      .st25 {
        fill: #d9d9d9;
      }

      .st26 {
        fill: #f4f4f4;
      }

      .st27 {
        fill: #dbdbdb;
      }

      .st28 {
        fill: #cecece;
      }

      .st29 {
        fill: url(#linear-gradient);
      }

      .st30 {
        fill: #d4d4d4;
      }

      .st31 {
        fill: #e5e5e5;
      }

      .st32 {
        fill: #ccc;
      }

      .st33 {
        isolation: isolate;
      }

      .st34 {
        fill: #d8d8d8;
      }

      .st35 {
        fill: #dedede;
      }

      .st36 {
        mix-blend-mode: multiply;
      }

      .st37 {
        fill: #ddd;
      }

      .st38 {
        fill: #e7e7e7;
      }

      .st39 {
        fill: #d7d7d7;
      }

      .st40 {
        fill: #fff;
      }

      .st41 {
        fill: #f9f9f9;
      }

      .st42 {
        fill: #f0f0f0;
      }

      .st43 {
        fill: #cdcdcd;
      }

      .st44 {
        fill: #fafafa;
      }

      .st45 {
        fill: #e9e9e9;
      }

      .st46 {
        fill: #f8f8f8;
      }

      .st47 {
        fill: #f7f7f7;
      }

      .st48 {
        fill: #fefefe;
      }

      .st49 {
        fill: #d5d5d5;
      }

      .st50 {
        fill: #f2f2f2;
      }

      .st51 {
        fill: #f5f5f5;
      }

      .st52 {
        fill: #e1e1e1;
      }

      .st53 {
        fill: #f3f3f3;
      }

      .st54 {
        fill: #fbfbfb;
      }

      .st55 {
        fill: #fcfcfc;
      }

      .st56 {
        fill: #ededed;
      }

      .st57 {
        fill: #d3d3d3;
      }

      .st58 {
        fill: #dadada;
      }

      .st59 {
        fill: #d1d1d1;
      }

      .st60 {
        fill: #eee;
      }

      .st61 {
        fill: #dcdcdc;
      }

      .st62 {
        fill: #cfcfcf;
      }

      .st63 {
        fill: #e8e8e8;
      }

      .st64 {
        fill: #ececec;
      }

      .st65 {
        fill: #fdfdfd;
      }
    </style>
    <linearGradient id="linear-gradient" x1="352.56" y1="819.48" x2="352.56" y2="25.61" gradientUnits="userSpaceOnUse">
      <stop offset="0" stop-color="#ea66fc"/>
      <stop offset="1" stop-color="#3a4982"/>
    </linearGradient>
    <linearGradient id="linear-gradient1" x1="747.4" y1="819.48" x2="747.4" y2="25.61" xlink:href="#linear-gradient"/>
    <linearGradient id="linear-gradient2" x1="780.3" y1="819.48" x2="780.3" y2="25.6" xlink:href="#linear-gradient"/>
    <linearGradient id="linear-gradient3" x1="793.63" y1="819.48" x2="793.63" y2="25.61" xlink:href="#linear-gradient"/>
    <linearGradient id="linear-gradient4" x1="786.97" y1="819.48" x2="786.97" y2="25.61" xlink:href="#linear-gradient"/>
    <linearGradient id="linear-gradient5" x1="760.47" y1="819.48" x2="760.47" y2="25.61" xlink:href="#linear-gradient"/>
    <linearGradient id="linear-gradient6" x1="715.49" y1="819.48" x2="715.49" y2="25.61" xlink:href="#linear-gradient"/>
    <linearGradient id="linear-gradient7" x1="654.52" y1="819.48" x2="654.52" y2="25.61" xlink:href="#linear-gradient"/>
    <linearGradient id="linear-gradient8" x1="580.76" y1="819.48" x2="580.76" y2="25.61" xlink:href="#linear-gradient"/>
    <linearGradient id="linear-gradient9" x1="498.01" y1="819.48" x2="498.01" y2="25.61" xlink:href="#linear-gradient"/>
    <linearGradient id="linear-gradient10" x1="303.6" y1="819.48" x2="303.6" y2="25.61" xlink:href="#linear-gradient"/>
    <linearGradient id="linear-gradient11" x1="519.12" y1="819.48" x2="519.12" y2="25.61" xlink:href="#linear-gradient"/>
  </defs>
  <g class="st33">
    <g id="Layer_1">
      <g>
        <g class="st36">
          <path class="st40" d="M508.79,918.48c-55.43,0-109.21-10.86-159.85-32.28-48.9-20.68-92.82-50.29-130.52-87.99-37.7-37.7-67.31-81.62-87.99-130.52-21.42-50.64-32.28-104.43-32.28-159.85s10.86-109.21,32.28-159.85c20.68-48.9,50.29-92.82,87.99-130.52,37.7-37.7,81.62-67.31,130.52-87.99,41.66-17.62,85.43-28.09,130.5-31.26,15.86-1.11,29.35,11.43,29.35,27.33h0c0,14.35-11.07,26.31-25.39,27.32-184.42,13.06-330.47,167.28-330.47,354.97s159.64,355.87,355.87,355.87c92.83,0,181.89-36.43,248.07-100.73,10.27-9.97,26.54-10.21,37.22-.68h0c11.82,10.56,12.3,28.95.95,40.01-33.73,32.87-72.48,59.41-115.52,79.11-53.74,24.6-111.18,37.07-170.73,37.07Z"/>
          <path class="st48" d="M506.9,916.6c-55.43,0-109.21-10.86-159.85-32.28-48.9-20.68-92.82-50.29-130.52-87.99-37.7-37.7-67.31-81.62-87.99-130.52-21.42-50.64-32.28-104.43-32.28-159.85s10.86-109.21,32.28-159.85c20.68-48.9,50.29-92.82,87.99-130.52,37.7-37.7,81.62-67.31,130.52-87.99,41.66-17.62,85.43-28.09,130.5-31.26,15.86-1.11,29.35,11.43,29.35,27.33h0c0,14.35-11.07,26.31-25.39,27.32-184.42,13.06-330.47,167.28-330.47,354.97s159.64,355.87,355.87,355.87c92.83,0,181.89-36.43,248.07-100.73,10.27-9.97,26.54-10.21,37.22-.68h0c11.82,10.56,12.3,28.95.95,40.01-33.73,32.87-72.48,59.41-115.52,79.11-53.74,24.6-111.18,37.07-170.73,37.07Z"/>
          <path class="st65" d="M505.02,914.71c-55.43,0-109.21-10.86-159.85-32.28-48.9-20.68-92.82-50.29-130.52-87.99-37.7-37.7-67.31-81.62-87.99-130.52-21.42-50.64-32.28-104.43-32.28-159.85s10.86-109.21,32.28-159.85c20.68-48.9,50.29-92.82,87.99-130.52,37.7-37.7,81.62-67.31,130.52-87.99,41.66-17.62,85.43-28.09,130.5-31.26,15.86-1.11,29.35,11.43,29.35,27.33h0c0,14.35-11.07,26.31-25.39,27.32-184.42,13.06-330.47,167.28-330.47,354.97s159.64,355.87,355.87,355.87c92.83,0,181.89-36.43,248.07-100.73,10.27-9.97,26.54-10.21,37.22-.68h0c11.82,10.56,12.3,28.95.95,40.01-33.73,32.87-72.48,59.41-115.52,79.11-53.74,24.6-111.18,37.07-170.73,37.07Z"/>
          <path class="st55" d="M503.13,912.82c-55.43,0-109.21-10.86-159.85-32.28-48.9-20.68-92.82-50.29-130.52-87.99-37.7-37.7-67.31-81.62-87.99-130.52-21.42-50.64-32.28-104.43-32.28-159.85s10.86-109.21,32.28-159.85c20.68-48.9,50.29-92.82,87.99-130.52,37.7-37.7,81.62-67.31,130.52-87.99,41.66-17.62,85.43-28.09,130.5-31.26,15.86-1.11,29.35,11.43,29.35,27.33h0c0,14.35-11.07,26.31-25.39,27.32-184.42,13.06-330.47,167.28-330.47,354.97s159.64,355.87,355.87,355.87c92.83,0,181.89-36.43,248.07-100.73,10.27-9.97,26.54-10.21,37.22-.68h0c11.82,10.56,12.3,28.95.95,40.01-33.73,32.87-72.48,59.41-115.52,79.11-53.74,24.6-111.18,37.07-170.73,37.07Z"/>
          <path class="st54" d="M501.24,910.93c-55.43,0-109.21-10.86-159.85-32.28-48.9-20.68-92.82-50.29-130.52-87.99-37.7-37.7-67.31-81.62-87.99-130.52-21.42-50.64-32.28-104.43-32.28-159.85s10.86-109.21,32.28-159.85c20.68-48.9,50.29-92.82,87.99-130.52,37.7-37.7,81.62-67.31,130.52-87.99,41.66-17.62,85.43-28.09,130.5-31.26,15.86-1.11,29.35,11.43,29.35,27.33h0c0,14.35-11.07,26.31-25.39,27.32-184.42,13.06-330.47,167.28-330.47,354.97s159.64,355.87,355.87,355.87c92.83,0,181.89-36.43,248.07-100.73,10.27-9.97,26.54-10.21,37.22-.68h0c11.82,10.56,12.3,28.95.95,40.01-33.73,32.87-72.48,59.41-115.52,79.11-53.74,24.6-111.18,37.07-170.73,37.07Z"/>
          <path class="st44" d="M499.35,909.05c-55.43,0-109.21-10.86-159.85-32.28-48.9-20.68-92.82-50.29-130.52-87.99-37.7-37.7-67.31-81.62-87.99-130.52-21.42-50.64-32.28-104.43-32.28-159.85s10.86-109.21,32.28-159.85c20.68-48.9,50.29-92.82,87.99-130.52,37.7-37.7,81.62-67.31,130.52-87.99,41.66-17.62,85.43-28.09,130.5-31.26,15.86-1.11,29.35,11.43,29.35,27.33h0c0,14.35-11.07,26.31-25.39,27.32-184.42,13.06-330.47,167.28-330.47,354.97s159.64,355.87,355.87,355.87c92.83,0,181.89-36.43,248.07-100.73,10.27-9.97,26.54-10.21,37.22-.68h0c11.82,10.56,12.3,28.95.95,40.01-33.73,32.87-72.48,59.41-115.52,79.11-53.74,24.6-111.18,37.07-170.73,37.07Z"/>
          <path class="st41" d="M497.47,907.16c-55.43,0-109.21-10.86-159.85-32.28-48.9-20.68-92.82-50.29-130.52-87.99-37.7-37.7-67.31-81.62-87.99-130.52-21.42-50.64-32.28-104.43-32.28-159.85s10.86-109.21,32.28-159.85c20.68-48.9,50.29-92.82,87.99-130.52,37.7-37.7,81.62-67.31,130.52-87.99,41.66-17.62,85.43-28.09,130.5-31.26,15.86-1.11,29.35,11.43,29.35,27.33h0c0,14.35-11.07,26.31-25.39,27.32-184.42,13.06-330.47,167.28-330.47,354.97s159.64,355.87,355.87,355.87c92.83,0,181.89-36.43,248.07-100.73,10.27-9.97,26.54-10.21,37.22-.68h0c11.82,10.56,12.3,28.95.95,40.01-33.73,32.87-72.48,59.41-115.52,79.11-53.74,24.6-111.18,37.07-170.73,37.07Z"/>
          <path class="st46" d="M495.58,905.27c-55.43,0-109.21-10.86-159.85-32.28-48.9-20.68-92.82-50.29-130.52-87.99-37.7-37.7-67.31-81.62-87.99-130.52-21.42-50.64-32.28-104.43-32.28-159.85s10.86-109.21,32.28-159.85c20.68-48.9,50.29-92.82,87.99-130.52,37.7-37.7,81.62-67.31,130.52-87.99,41.66-17.62,85.43-28.09,130.5-31.26,15.86-1.11,29.35,11.43,29.35,27.33h0c0,14.35-11.07,26.31-25.39,27.32-184.42,13.06-330.47,167.28-330.47,354.97s159.64,355.87,355.87,355.87c92.83,0,181.89-36.43,248.07-100.73,10.27-9.97,26.54-10.21,37.22-.68h0c11.82,10.56,12.3,28.95.95,40.01-33.73,32.87-72.48,59.41-115.52,79.11-53.74,24.6-111.18,37.07-170.73,37.07Z"/>
          <path class="st47" d="M493.69,903.39c-55.43,0-109.21-10.86-159.85-32.28-48.9-20.68-92.82-50.29-130.52-87.99-37.7-37.7-67.31-81.62-87.99-130.52-21.42-50.64-32.28-104.43-32.28-159.85s10.86-109.21,32.28-159.85c20.68-48.9,50.29-92.82,87.99-130.52,37.7-37.7,81.62-67.31,130.52-87.99,41.66-17.62,85.43-28.09,130.5-31.26,15.86-1.11,29.35,11.43,29.35,27.33h0c0,14.35-11.07,26.31-25.39,27.32-184.42,13.06-330.47,167.28-330.47,354.97s159.64,355.87,355.87,355.87c92.83,0,181.89-36.43,248.07-100.73,10.27-9.97,26.54-10.21,37.22-.68h0c11.82,10.56,12.3,28.95.95,40.01-33.73,32.87-72.48,59.41-115.52,79.11-53.74,24.6-111.18,37.07-170.73,37.07Z"/>
          <path class="st23" d="M491.81,901.5c-55.43,0-109.21-10.86-159.85-32.28-48.9-20.68-92.82-50.29-130.52-87.99-37.7-37.7-67.31-81.62-87.99-130.52-21.42-50.64-32.28-104.43-32.28-159.85s10.86-109.21,32.28-159.85c20.68-48.9,50.29-92.82,87.99-130.52,37.7-37.7,81.62-67.31,130.52-87.99,41.66-17.62,85.43-28.09,130.5-31.26,15.86-1.11,29.35,11.43,29.35,27.33h0c0,14.35-11.07,26.31-25.39,27.32-184.42,13.06-330.47,167.28-330.47,354.97s159.64,355.87,355.87,355.87c92.83,0,181.89-36.43,248.07-100.73,10.27-9.97,26.54-10.21,37.22-.68h0c11.82,10.56,12.3,28.95.95,40.01-33.73,32.87-72.48,59.41-115.52,79.11-53.74,24.6-111.18,37.07-170.73,37.07Z"/>
          <path class="st51" d="M489.92,899.61c-55.43,0-109.21-10.86-159.85-32.28-48.9-20.68-92.82-50.29-130.52-87.99-37.7-37.7-67.31-81.62-87.99-130.52-21.42-50.64-32.28-104.43-32.28-159.85s10.86-109.21,32.28-159.85c20.68-48.9,50.29-92.82,87.99-130.52,37.7-37.7,81.62-67.31,130.52-87.99,41.66-17.62,85.43-28.09,130.5-31.26,15.86-1.11,29.35,11.43,29.35,27.33h0c0,14.35-11.07,26.31-25.39,27.32-184.42,13.06-330.47,167.28-330.47,354.97s159.64,355.87,355.87,355.87c92.83,0,181.89-36.43,248.07-100.73,10.27-9.97,26.54-10.21,37.22-.68h0c11.82,10.56,12.3,28.95.95,40.01-33.73,32.87-72.48,59.41-115.52,79.11-53.74,24.6-111.18,37.07-170.73,37.07Z"/>
          <path class="st26" d="M488.03,897.72c-55.43,0-109.21-10.86-159.85-32.28-48.9-20.68-92.82-50.29-130.52-87.99-37.7-37.7-67.31-81.62-87.99-130.52-21.42-50.64-32.28-104.43-32.28-159.85s10.86-109.21,32.28-159.85c20.68-48.9,50.29-92.82,87.99-130.52,37.7-37.7,81.62-67.31,130.52-87.99,41.66-17.62,85.43-28.09,130.5-31.26,15.86-1.11,29.35,11.43,29.35,27.33h0c0,14.35-11.07,26.31-25.39,27.32-184.42,13.06-330.47,167.28-330.47,354.97s159.64,355.87,355.87,355.87c92.83,0,181.89-36.43,248.07-100.73,10.27-9.97,26.54-10.21,37.22-.68h0c11.82,10.56,12.3,28.95.95,40.01-33.73,32.87-72.48,59.41-115.52,79.11-53.74,24.6-111.18,37.07-170.73,37.07Z"/>
          <path class="st53" d="M486.14,895.84c-55.43,0-109.21-10.86-159.85-32.28-48.9-20.68-92.82-50.29-130.52-87.99-37.7-37.7-67.31-81.62-87.99-130.52-21.42-50.64-32.28-104.43-32.28-159.85s10.86-109.21,32.28-159.85c20.68-48.9,50.29-92.82,87.99-130.52,37.7-37.7,81.62-67.31,130.52-87.99,41.66-17.62,85.43-28.09,130.5-31.26,15.86-1.11,29.35,11.43,29.35,27.33h0c0,14.35-11.07,26.31-25.39,27.32-184.42,13.06-330.47,167.28-330.47,354.97s159.64,355.87,355.87,355.87c92.83,0,181.89-36.43,248.07-100.73,10.27-9.97,26.54-10.21,37.22-.68h0c11.82,10.56,12.3,28.95.95,40.01-33.73,32.87-72.48,59.41-115.52,79.11-53.74,24.6-111.18,37.07-170.73,37.07Z"/>
          <path class="st50" d="M484.26,893.95c-55.43,0-109.21-10.86-159.85-32.28-48.9-20.68-92.82-50.29-130.52-87.99-37.7-37.7-67.31-81.62-87.99-130.52-21.42-50.64-32.28-104.43-32.28-159.85s10.86-109.21,32.28-159.85c20.68-48.9,50.29-92.82,87.99-130.52,37.7-37.7,81.62-67.31,130.52-87.99,41.66-17.62,85.43-28.09,130.5-31.26,15.86-1.11,29.35,11.43,29.35,27.33h0c0,14.35-11.07,26.31-25.39,27.32-184.42,13.06-330.47,167.28-330.47,354.97s159.64,355.87,355.87,355.87c92.83,0,181.89-36.43,248.07-100.73,10.27-9.97,26.54-10.21,37.22-.68h0c11.82,10.56,12.3,28.95.95,40.01-33.73,32.87-72.48,59.41-115.52,79.11-53.74,24.6-111.18,37.07-170.73,37.07Z"/>
          <path class="st0" d="M482.37,892.06c-55.43,0-109.21-10.86-159.85-32.28-48.9-20.68-92.82-50.29-130.52-87.99-37.7-37.7-67.31-81.62-87.99-130.52-21.42-50.64-32.28-104.43-32.28-159.85s10.86-109.21,32.28-159.85c20.68-48.9,50.29-92.82,87.99-130.52,37.7-37.7,81.62-67.31,130.52-87.99,41.66-17.62,85.43-28.09,130.5-31.26,15.86-1.11,29.35,11.43,29.35,27.33h0c0,14.35-11.07,26.31-25.39,27.32-184.42,13.06-330.47,167.28-330.47,354.97s159.64,355.87,355.87,355.87c92.83,0,181.89-36.43,248.07-100.73,10.27-9.97,26.54-10.21,37.22-.68h0c11.82,10.56,12.3,28.95.95,40.01-33.73,32.87-72.48,59.41-115.52,79.11-53.74,24.6-111.18,37.07-170.73,37.07Z"/>
          <path class="st42" d="M480.48,890.17c-55.43,0-109.21-10.86-159.85-32.28-48.9-20.68-92.82-50.29-130.52-87.99-37.7-37.7-67.31-81.62-87.99-130.52-21.42-50.64-32.28-104.43-32.28-159.85s10.86-109.21,32.28-159.85c20.68-48.9,50.29-92.82,87.99-130.52,37.7-37.7,81.62-67.31,130.52-87.99,41.66-17.62,85.43-28.09,130.5-31.26,15.86-1.11,29.35,11.43,29.35,27.33h0c0,14.35-11.07,26.31-25.39,27.32-184.42,13.06-330.47,167.28-330.47,354.97s159.64,355.87,355.87,355.87c92.83,0,181.89-36.43,248.07-100.73,10.27-9.97,26.54-10.21,37.22-.68h0c11.82,10.56,12.3,28.95.95,40.01-33.73,32.87-72.48,59.41-115.52,79.11-53.74,24.6-111.18,37.07-170.73,37.07Z"/>
          <path class="st21" d="M478.59,888.29c-55.43,0-109.21-10.86-159.85-32.28-48.9-20.68-92.82-50.29-130.52-87.99-37.7-37.7-67.31-81.62-87.99-130.52-21.42-50.64-32.28-104.43-32.28-159.85s10.86-109.21,32.28-159.85c20.68-48.9,50.29-92.82,87.99-130.52,37.7-37.7,81.62-67.31,130.52-87.99,41.66-17.62,85.43-28.09,130.5-31.26,15.86-1.11,29.35,11.43,29.35,27.33h0c0,14.35-11.07,26.31-25.39,27.32-184.42,13.06-330.47,167.28-330.47,354.97s159.64,355.87,355.87,355.87c92.83,0,181.89-36.43,248.07-100.73,10.27-9.97,26.54-10.21,37.22-.68h0c11.82,10.56,12.3,28.95.95,40.01-33.73,32.87-72.48,59.41-115.52,79.11-53.74,24.6-111.18,37.07-170.73,37.07Z"/>
          <path class="st60" d="M476.71,886.4c-55.43,0-109.21-10.86-159.85-32.28-48.9-20.68-92.82-50.29-130.52-87.99-37.7-37.7-67.31-81.62-87.99-130.52-21.42-50.64-32.28-104.43-32.28-159.85s10.86-109.21,32.28-159.85c20.68-48.9,50.29-92.82,87.99-130.52,37.7-37.7,81.62-67.31,130.52-87.99,41.66-17.62,85.43-28.09,130.5-31.26,15.86-1.11,29.35,11.43,29.35,27.33h0c0,14.35-11.07,26.31-25.39,27.32-184.42,13.06-330.47,167.28-330.47,354.97s159.64,355.87,355.87,355.87c92.83,0,181.89-36.43,248.07-100.73,10.27-9.97,26.54-10.21,37.22-.68h0c11.82,10.56,12.3,28.95.95,40.01-33.73,32.87-72.48,59.41-115.52,79.11-53.74,24.6-111.18,37.07-170.73,37.07Z"/>
          <path class="st56" d="M474.82,884.51c-55.43,0-109.21-10.86-159.85-32.28-48.9-20.68-92.82-50.29-130.52-87.99-37.7-37.7-67.31-81.62-87.99-130.52-21.42-50.64-32.28-104.43-32.28-159.85s10.86-109.21,32.28-159.85c20.68-48.9,50.29-92.82,87.99-130.52,37.7-37.7,81.62-67.31,130.52-87.99,41.66-17.62,85.43-28.09,130.5-31.26,15.86-1.11,29.35,11.43,29.35,27.33h0c0,14.35-11.07,26.31-25.39,27.32-184.42,13.06-330.47,167.28-330.47,354.97s159.64,355.87,355.87,355.87c92.83,0,181.89-36.43,248.07-100.73,10.27-9.97,26.54-10.21,37.22-.68h0c11.82,10.56,12.3,28.95.95,40.01-33.73,32.87-72.48,59.41-115.52,79.11-53.74,24.6-111.18,37.07-170.73,37.07Z"/>
          <path class="st64" d="M472.93,882.62c-55.43,0-109.21-10.86-159.85-32.28-48.9-20.68-92.82-50.29-130.52-87.99-37.7-37.7-67.31-81.62-87.99-130.52-21.42-50.64-32.28-104.43-32.28-159.85s10.86-109.21,32.28-159.85c20.68-48.9,50.29-92.82,87.99-130.52,37.7-37.7,81.62-67.31,130.52-87.99,41.66-17.62,85.43-28.09,130.5-31.26,15.86-1.11,29.35,11.43,29.35,27.33h0c0,14.35-11.07,26.31-25.39,27.32-184.42,13.06-330.47,167.28-330.47,354.97s159.64,355.87,355.87,355.87c92.83,0,181.89-36.43,248.07-100.73,10.27-9.97,26.54-10.21,37.22-.68h0c11.82,10.56,12.3,28.95.95,40.01-33.73,32.87-72.48,59.41-115.52,79.11-53.74,24.6-111.18,37.07-170.73,37.07Z"/>
          <path class="st24" d="M471.04,880.74c-55.43,0-109.21-10.86-159.85-32.28-48.9-20.68-92.82-50.29-130.52-87.99-37.7-37.7-67.31-81.62-87.99-130.52-21.42-50.64-32.28-104.43-32.28-159.85s10.86-109.21,32.28-159.85c20.68-48.9,50.29-92.82,87.99-130.52,37.7-37.7,81.62-67.31,130.52-87.99,41.66-17.62,85.43-28.09,130.5-31.26,15.86-1.11,29.35,11.43,29.35,27.33h0c0,14.35-11.07,26.31-25.39,27.32-184.42,13.06-330.47,167.28-330.47,354.97s159.64,355.87,355.87,355.87c92.83,0,181.89-36.43,248.07-100.73,10.27-9.97,26.54-10.21,37.22-.68h0c11.82,10.56,12.3,28.95.95,40.01-33.73,32.87-72.48,59.41-115.52,79.11-53.74,24.6-111.18,37.07-170.73,37.07Z"/>
          <path class="st13" d="M469.16,878.85c-55.43,0-109.21-10.86-159.85-32.28-48.9-20.68-92.82-50.29-130.52-87.99-37.7-37.7-67.31-81.62-87.99-130.52-21.42-50.64-32.28-104.43-32.28-159.85s10.86-109.21,32.28-159.85c20.68-48.9,50.29-92.82,87.99-130.52,37.7-37.7,81.62-67.31,130.52-87.99,41.66-17.62,85.43-28.09,130.5-31.26,15.86-1.11,29.35,11.43,29.35,27.33h0c0,14.35-11.07,26.31-25.39,27.32-184.42,13.06-330.47,167.28-330.47,354.97s159.64,355.87,355.87,355.87c92.83,0,181.89-36.43,248.07-100.73,10.27-9.97,26.54-10.21,37.22-.68h0c11.82,10.56,12.3,28.95.95,40.01-33.73,32.87-72.48,59.41-115.52,79.11-53.74,24.6-111.18,37.07-170.73,37.07Z"/>
          <path class="st45" d="M467.27,876.96c-55.43,0-109.21-10.86-159.85-32.28-48.9-20.68-92.82-50.29-130.52-87.99-37.7-37.7-67.31-81.62-87.99-130.52-21.42-50.64-32.28-104.43-32.28-159.85s10.86-109.21,32.28-159.85c20.68-48.9,50.29-92.82,87.99-130.52,37.7-37.7,81.62-67.31,130.52-87.99,41.66-17.62,85.43-28.09,130.5-31.26,15.86-1.11,29.35,11.43,29.35,27.33h0c0,14.35-11.07,26.31-25.39,27.32-184.42,13.06-330.47,167.28-330.47,354.97s159.64,355.87,355.87,355.87c92.83,0,181.89-36.43,248.07-100.73,10.27-9.97,26.54-10.21,37.22-.68h0c11.82,10.56,12.3,28.95.95,40.01-33.73,32.87-72.48,59.41-115.52,79.11-53.74,24.6-111.18,37.07-170.73,37.07Z"/>
          <path class="st63" d="M465.38,875.08c-55.43,0-109.21-10.86-159.85-32.28-48.9-20.68-92.82-50.29-130.52-87.99-37.7-37.7-67.31-81.62-87.99-130.52-21.42-50.64-32.28-104.43-32.28-159.85s10.86-109.21,32.28-159.85c20.68-48.9,50.29-92.82,87.99-130.52,37.7-37.7,81.62-67.31,130.52-87.99,41.66-17.62,85.43-28.09,130.5-31.26,15.86-1.11,29.35,11.43,29.35,27.33h0c0,14.35-11.07,26.31-25.39,27.32-184.42,13.06-330.47,167.28-330.47,354.97s159.64,355.87,355.87,355.87c92.83,0,181.89-36.43,248.07-100.73,10.27-9.97,26.54-10.21,37.22-.68h0c11.82,10.56,12.3,28.95.95,40.01-33.73,32.87-72.48,59.41-115.52,79.11-53.74,24.6-111.18,37.07-170.73,37.07Z"/>
          <path class="st38" d="M463.49,873.19c-55.43,0-109.21-10.86-159.85-32.28-48.9-20.68-92.82-50.29-130.52-87.99-37.7-37.7-67.31-81.62-87.99-130.52-21.42-50.64-32.28-104.43-32.28-159.85s10.86-109.21,32.28-159.85c20.68-48.9,50.29-92.82,87.99-130.52,37.7-37.7,81.62-67.31,130.52-87.99,41.66-17.62,85.43-28.09,130.5-31.26,15.86-1.11,29.35,11.43,29.35,27.33h0c0,14.35-11.07,26.31-25.39,27.32-184.42,13.06-330.47,167.28-330.47,354.97s159.64,355.87,355.87,355.87c92.83,0,181.89-36.43,248.07-100.73,10.27-9.97,26.54-10.21,37.22-.68h0c11.82,10.56,12.3,28.95.95,40.01-33.73,32.87-72.48,59.41-115.52,79.11-53.74,24.6-111.18,37.07-170.73,37.07Z"/>
          <path class="st16" d="M461.61,871.3c-55.43,0-109.21-10.86-159.85-32.28-48.9-20.68-92.82-50.29-130.52-87.99-37.7-37.7-67.31-81.62-87.99-130.52-21.42-50.64-32.28-104.43-32.28-159.85s10.86-109.21,32.28-159.85c20.68-48.9,50.29-92.82,87.99-130.52,37.7-37.7,81.62-67.31,130.52-87.99,41.66-17.62,85.43-28.09,130.5-31.26,15.86-1.11,29.35,11.43,29.35,27.33h0c0,14.35-11.07,26.31-25.39,27.32-184.42,13.06-330.47,167.28-330.47,354.97s159.64,355.87,355.87,355.87c92.83,0,181.89-36.43,248.07-100.73,10.27-9.97,26.54-10.21,37.22-.68h0c11.82,10.56,12.3,28.95.95,40.01-33.73,32.87-72.48,59.41-115.52,79.11-53.74,24.6-111.18,37.07-170.73,37.07Z"/>
          <path class="st16" d="M459.72,869.41c-55.43,0-109.21-10.86-159.85-32.28-48.9-20.68-92.82-50.29-130.52-87.99-37.7-37.7-67.31-81.62-87.99-130.52-21.42-50.64-32.28-104.43-32.28-159.85s10.86-109.21,32.28-159.85c20.68-48.9,50.29-92.82,87.99-130.52,37.7-37.7,81.62-67.31,130.52-87.99,41.65-17.62,85.43-28.09,130.5-31.26,15.86-1.11,29.35,11.43,29.35,27.33h0c0,14.35-11.07,26.31-25.39,27.32-184.42,13.06-330.47,167.28-330.47,354.97s159.64,355.87,355.87,355.87c92.83,0,181.89-36.43,248.07-100.73,10.27-9.97,26.54-10.21,37.22-.68h0c11.82,10.56,12.3,28.95.95,40.01-33.73,32.87-72.48,59.41-115.52,79.11-53.74,24.6-111.18,37.07-170.73,37.07Z"/>
          <path class="st31" d="M457.83,867.53c-55.43,0-109.21-10.86-159.85-32.28-48.9-20.68-92.82-50.29-130.52-87.99-37.7-37.7-67.31-81.62-87.99-130.52-21.42-50.64-32.28-104.43-32.28-159.85s10.86-109.21,32.28-159.85c20.68-48.9,50.29-92.82,87.99-130.52,37.7-37.7,81.62-67.31,130.52-87.99,41.66-17.62,85.43-28.09,130.5-31.26,15.86-1.11,29.35,11.43,29.35,27.33h0c0,14.35-11.07,26.31-25.39,27.32-184.42,13.06-330.47,167.28-330.47,354.97s159.64,355.87,355.87,355.87c92.83,0,181.89-36.43,248.07-100.73,10.27-9.97,26.54-10.21,37.22-.68h0c11.82,10.56,12.3,28.95.95,40.01-33.73,32.87-72.48,59.41-115.52,79.11-53.74,24.6-111.18,37.07-170.73,37.07Z"/>
          <path class="st22" d="M455.95,865.64c-55.43,0-109.21-10.86-159.85-32.28-48.9-20.68-92.82-50.29-130.52-87.99-37.7-37.7-67.31-81.62-87.99-130.52-21.42-50.64-32.28-104.43-32.28-159.85s10.86-109.21,32.28-159.85c20.68-48.9,50.29-92.82,87.99-130.52,37.7-37.7,81.62-67.31,130.52-87.99,41.66-17.62,85.43-28.09,130.5-31.26,15.86-1.11,29.35,11.43,29.35,27.33h0c0,14.35-11.07,26.31-25.39,27.32-184.42,13.06-330.47,167.28-330.47,354.97s159.64,355.87,355.87,355.87c92.83,0,181.89-36.43,248.07-100.73,10.27-9.97,26.54-10.21,37.22-.68h0c11.82,10.56,12.3,28.95.95,40.01-33.73,32.87-72.48,59.41-115.52,79.11-53.74,24.6-111.18,37.07-170.73,37.07Z"/>
          <path class="st14" d="M454.06,863.75c-55.43,0-109.21-10.86-159.85-32.28-48.9-20.68-92.82-50.29-130.52-87.99-37.7-37.7-67.31-81.62-87.99-130.52-21.42-50.64-32.28-104.43-32.28-159.85s10.86-109.21,32.28-159.85c20.68-48.9,50.29-92.82,87.99-130.52,37.7-37.7,81.62-67.31,130.52-87.99,41.65-17.62,85.43-28.09,130.5-31.26,15.86-1.11,29.35,11.43,29.35,27.33h0c0,14.35-11.07,26.31-25.39,27.32-184.42,13.06-330.47,167.28-330.47,354.97s159.64,355.87,355.87,355.87c92.83,0,181.89-36.43,248.07-100.73,10.27-9.97,26.54-10.21,37.22-.68h0c11.82,10.56,12.3,28.95.95,40.01-33.73,32.87-72.48,59.41-115.52,79.11-53.74,24.6-111.18,37.07-170.73,37.07Z"/>
          <path class="st20" d="M452.17,861.86c-55.43,0-109.21-10.86-159.85-32.28-48.9-20.68-92.82-50.29-130.52-87.99-37.7-37.7-67.31-81.62-87.99-130.52-21.42-50.64-32.28-104.43-32.28-159.85s10.86-109.21,32.28-159.85c20.68-48.9,50.29-92.82,87.99-130.52,37.7-37.7,81.62-67.31,130.52-87.99,41.66-17.62,85.43-28.09,130.5-31.26,15.86-1.11,29.35,11.43,29.35,27.33h0c0,14.35-11.07,26.31-25.39,27.32-184.42,13.06-330.47,167.28-330.47,354.97s159.64,355.87,355.87,355.87c92.83,0,181.89-36.43,248.07-100.73,10.27-9.97,26.54-10.21,37.22-.68h0c11.82,10.56,12.3,28.95.95,40.01-33.73,32.87-72.48,59.41-115.52,79.11-53.74,24.6-111.18,37.07-170.73,37.07Z"/>
          <path class="st52" d="M450.28,859.98c-55.43,0-109.21-10.86-159.85-32.28-48.9-20.68-92.82-50.29-130.52-87.99-37.7-37.7-67.31-81.62-87.99-130.52-21.42-50.64-32.28-104.43-32.28-159.85s10.86-109.21,32.28-159.85c20.68-48.9,50.29-92.82,87.99-130.52,37.7-37.7,81.62-67.31,130.52-87.99,41.66-17.62,85.43-28.09,130.5-31.26,15.86-1.11,29.35,11.43,29.35,27.33h0c0,14.35-11.07,26.31-25.39,27.32-184.42,13.06-330.47,167.28-330.47,354.97s159.64,355.87,355.87,355.87c92.83,0,181.89-36.43,248.07-100.73,10.27-9.97,26.54-10.21,37.22-.68h0c11.82,10.56,12.3,28.95.95,40.01-33.73,32.87-72.48,59.41-115.52,79.11-53.74,24.6-111.18,37.07-170.73,37.07Z"/>
          <path class="st1" d="M448.4,858.09c-55.43,0-109.21-10.86-159.85-32.28-48.9-20.68-92.82-50.29-130.52-87.99-37.7-37.7-67.31-81.62-87.99-130.52-21.42-50.64-32.28-104.43-32.28-159.85s10.86-109.21,32.28-159.85c20.68-48.9,50.29-92.82,87.99-130.52,37.7-37.7,81.62-67.31,130.52-87.99,41.66-17.62,85.43-28.09,130.5-31.26,15.86-1.11,29.35,11.43,29.35,27.33h0c0,14.35-11.07,26.31-25.39,27.32-184.42,13.06-330.47,167.28-330.47,354.97s159.64,355.87,355.87,355.87c92.83,0,181.89-36.43,248.07-100.73,10.27-9.97,26.54-10.21,37.22-.68h0c11.82,10.56,12.3,28.95.95,40.01-33.73,32.87-72.48,59.41-115.52,79.11-53.74,24.6-111.18,37.07-170.73,37.07Z"/>
          <path class="st2" d="M446.51,856.2c-55.43,0-109.21-10.86-159.85-32.28-48.9-20.68-92.82-50.29-130.52-87.99-37.7-37.7-67.31-81.62-87.99-130.52-21.42-50.64-32.28-104.43-32.28-159.85s10.86-109.21,32.28-159.85c20.68-48.9,50.29-92.82,87.99-130.52,37.7-37.7,81.62-67.31,130.52-87.99,41.66-17.62,85.43-28.09,130.5-31.26,15.86-1.11,29.35,11.43,29.35,27.33h0c0,14.35-11.07,26.31-25.39,27.32-184.42,13.06-330.47,167.28-330.47,354.97s159.64,355.87,355.87,355.87c92.83,0,181.89-36.43,248.07-100.73,10.27-9.97,26.54-10.21,37.22-.68h0c11.82,10.56,12.3,28.95.95,40.01-33.73,32.87-72.48,59.41-115.52,79.11-53.74,24.6-111.18,37.07-170.73,37.07Z"/>
          <path class="st35" d="M444.62,854.31c-55.43,0-109.21-10.86-159.85-32.28-48.9-20.68-92.82-50.29-130.52-87.99-37.7-37.7-67.31-81.62-87.99-130.52-21.42-50.64-32.28-104.43-32.28-159.85s10.86-109.21,32.28-159.85c20.68-48.9,50.29-92.82,87.99-130.52,37.7-37.7,81.62-67.31,130.52-87.99,41.66-17.62,85.43-28.09,130.5-31.26,15.86-1.11,29.35,11.43,29.35,27.33h0c0,14.35-11.07,26.31-25.39,27.32C234.81,101.76,88.76,255.98,88.76,443.67s159.64,355.87,355.87,355.87c92.83,0,181.89-36.43,248.07-100.73,10.27-9.97,26.54-10.21,37.22-.68h0c11.82,10.56,12.3,28.95.95,40.01-33.73,32.87-72.48,59.41-115.52,79.11-53.74,24.6-111.18,37.07-170.73,37.07Z"/>
          <path class="st37" d="M442.73,852.43c-55.43,0-109.21-10.86-159.85-32.28-48.9-20.68-92.82-50.29-130.52-87.99-37.7-37.7-67.31-81.62-87.99-130.52-21.42-50.64-32.28-104.43-32.28-159.85s10.86-109.21,32.28-159.85c20.68-48.9,50.29-92.82,87.99-130.52,37.7-37.7,81.62-67.31,130.52-87.99,41.66-17.62,85.43-28.09,130.5-31.26,15.86-1.11,29.35,11.43,29.35,27.33h0c0,14.35-11.07,26.31-25.39,27.32C232.92,99.87,86.87,254.09,86.87,441.78s159.64,355.87,355.87,355.87c92.83,0,181.89-36.43,248.07-100.73,10.27-9.97,26.54-10.21,37.22-.68h0c11.82,10.56,12.3,28.95.95,40.01-33.73,32.87-72.48,59.41-115.52,79.11-53.74,24.6-111.18,37.07-170.73,37.07Z"/>
          <path class="st61" d="M440.85,850.54c-55.43,0-109.21-10.86-159.85-32.28-48.9-20.68-92.82-50.29-130.52-87.99-37.7-37.7-67.31-81.62-87.99-130.52-21.42-50.64-32.28-104.43-32.28-159.85s10.86-109.21,32.28-159.85c20.68-48.9,50.29-92.82,87.99-130.52,37.7-37.7,81.62-67.31,130.52-87.99,41.66-17.62,85.43-28.09,130.5-31.26,15.86-1.11,29.35,11.43,29.35,27.33h0c0,14.35-11.07,26.31-25.39,27.32C231.03,97.98,84.98,252.2,84.98,439.89s159.64,355.87,355.87,355.87c92.83,0,181.89-36.43,248.07-100.73,10.27-9.97,26.54-10.21,37.22-.68h0c11.82,10.56,12.3,28.95.95,40.01-33.73,32.87-72.48,59.41-115.52,79.11-53.74,24.6-111.18,37.07-170.73,37.07Z"/>
          <path class="st27" d="M438.96,848.65c-55.43,0-109.21-10.86-159.85-32.28-48.9-20.68-92.82-50.29-130.52-87.99-37.7-37.7-67.31-81.62-87.99-130.52-21.42-50.64-32.28-104.43-32.28-159.85s10.86-109.21,32.28-159.85c20.68-48.9,50.29-92.82,87.99-130.52,37.7-37.7,81.62-67.31,130.52-87.99,41.66-17.62,85.43-28.09,130.5-31.26,15.86-1.11,29.35,11.43,29.35,27.33h0c0,14.35-11.07,26.31-25.39,27.32C229.15,96.1,83.09,250.31,83.09,438s159.64,355.87,355.87,355.87c92.83,0,181.89-36.43,248.07-100.73,10.27-9.97,26.54-10.21,37.22-.68h0c11.82,10.56,12.3,28.95.95,40.01-33.73,32.87-72.48,59.41-115.52,79.11-53.74,24.6-111.18,37.07-170.73,37.07Z"/>
          <path class="st58" d="M437.07,846.76c-55.43,0-109.21-10.86-159.85-32.28-48.9-20.68-92.82-50.29-130.52-87.99-37.7-37.7-67.31-81.62-87.99-130.52-21.42-50.64-32.28-104.43-32.28-159.85s10.86-109.21,32.28-159.85c20.68-48.9,50.29-92.82,87.99-130.52,37.7-37.7,81.62-67.31,130.52-87.99,41.66-17.62,85.43-28.09,130.5-31.26,15.86-1.11,29.35,11.43,29.35,27.33h0c0,14.35-11.07,26.31-25.39,27.32C227.26,94.21,81.21,248.43,81.21,436.12s159.64,355.87,355.87,355.87c92.83,0,181.89-36.43,248.07-100.73,10.27-9.97,26.54-10.21,37.22-.68h0c11.82,10.56,12.3,28.95.95,40.01-33.73,32.87-72.48,59.41-115.52,79.11-53.74,24.6-111.18,37.07-170.73,37.07Z"/>
          <path class="st25" d="M435.18,844.88c-55.43,0-109.21-10.86-159.85-32.28-48.9-20.68-92.82-50.29-130.52-87.99-37.7-37.7-67.31-81.62-87.99-130.52-21.42-50.64-32.28-104.43-32.28-159.85s10.86-109.21,32.28-159.85c20.68-48.9,50.29-92.82,87.99-130.52,37.7-37.7,81.62-67.31,130.52-87.99,41.66-17.62,85.43-28.09,130.5-31.26,15.86-1.11,29.35,11.43,29.35,27.33h0c0,14.35-11.07,26.31-25.39,27.32C225.37,92.32,79.32,246.54,79.32,434.23s159.64,355.87,355.87,355.87c92.83,0,181.89-36.43,248.07-100.73,10.27-9.97,26.54-10.21,37.22-.68h0c11.82,10.56,12.3,28.95.95,40.01-33.73,32.87-72.48,59.41-115.52,79.11-53.74,24.6-111.18,37.07-170.73,37.07Z"/>
          <path class="st34" d="M433.3,842.99c-55.43,0-109.21-10.86-159.85-32.28-48.9-20.68-92.82-50.29-130.52-87.99-37.7-37.7-67.31-81.62-87.99-130.52-21.42-50.64-32.28-104.43-32.28-159.85s10.86-109.21,32.28-159.85c20.68-48.9,50.29-92.82,87.99-130.52,37.7-37.7,81.62-67.31,130.52-87.99,41.66-17.62,85.43-28.09,130.5-31.26,15.86-1.11,29.35,11.43,29.35,27.33h0c0,14.35-11.07,26.31-25.39,27.32C223.48,90.43,77.43,244.65,77.43,432.34s159.64,355.87,355.87,355.87c92.83,0,181.89-36.43,248.07-100.73,10.27-9.97,26.54-10.21,37.22-.68h0c11.82,10.56,12.3,28.95.95,40.01-33.73,32.87-72.48,59.41-115.52,79.11-53.74,24.6-111.18,37.07-170.73,37.07Z"/>
          <path class="st39" d="M431.41,841.1c-55.43,0-109.21-10.86-159.85-32.28-48.9-20.68-92.82-50.29-130.52-87.99-37.7-37.7-67.31-81.62-87.99-130.52-21.42-50.64-32.28-104.43-32.28-159.85s10.86-109.21,32.28-159.85c20.68-48.9,50.29-92.82,87.99-130.52,37.7-37.7,81.62-67.31,130.52-87.99,41.66-17.62,85.43-28.09,130.5-31.26,15.86-1.11,29.35,11.43,29.35,27.33h0c0,14.35-11.07,26.31-25.39,27.32C221.6,88.55,75.54,242.77,75.54,430.45s159.64,355.87,355.87,355.87c92.83,0,181.89-36.43,248.07-100.73,10.27-9.97,26.54-10.21,37.22-.68h0c11.82,10.56,12.3,28.95.95,40.01-33.73,32.87-72.48,59.41-115.52,79.11-53.74,24.6-111.18,37.07-170.73,37.07Z"/>
          <path class="st3" d="M429.52,839.22c-55.43,0-109.21-10.86-159.85-32.28-48.9-20.68-92.82-50.29-130.52-87.99-37.7-37.7-67.31-81.62-87.99-130.52-21.42-50.64-32.28-104.43-32.28-159.85s10.86-109.21,32.28-159.85c20.68-48.9,50.29-92.82,87.99-130.52,37.7-37.7,81.62-67.31,130.52-87.99,41.66-17.62,85.43-28.09,130.5-31.26,15.86-1.11,29.35,11.43,29.35,27.33h0c0,14.35-11.07,26.31-25.39,27.32C219.71,86.66,73.66,240.88,73.66,428.57s159.64,355.87,355.87,355.87c92.83,0,181.89-36.43,248.07-100.73,10.27-9.97,26.54-10.21,37.22-.68h0c11.82,10.56,12.3,28.95.95,40.01-33.73,32.87-72.48,59.41-115.52,79.11-53.74,24.6-111.18,37.07-170.73,37.07Z"/>
          <path class="st49" d="M427.64,837.33c-55.43,0-109.21-10.86-159.85-32.28-48.9-20.68-92.82-50.29-130.52-87.99-37.7-37.7-67.31-81.62-87.99-130.52-21.42-50.64-32.28-104.43-32.28-159.85s10.86-109.21,32.28-159.85c20.68-48.9,50.29-92.82,87.99-130.52,37.7-37.7,81.62-67.31,130.52-87.99,41.66-17.62,85.43-28.09,130.5-31.26,15.86-1.11,29.35,11.43,29.35,27.33h0c0,14.35-11.07,26.31-25.39,27.32C217.82,84.77,71.77,238.99,71.77,426.68s159.64,355.87,355.87,355.87c92.83,0,181.89-36.43,248.07-100.73,10.27-9.97,26.54-10.21,37.22-.68h0c11.82,10.56,12.3,28.95.95,40.01-33.73,32.87-72.48,59.41-115.52,79.11-53.74,24.6-111.18,37.07-170.73,37.07Z"/>
          <path class="st30" d="M425.75,835.44c-55.43,0-109.21-10.86-159.85-32.28-48.9-20.68-92.82-50.29-130.52-87.99-37.7-37.7-67.31-81.62-87.99-130.52-21.42-50.64-32.28-104.43-32.28-159.85s10.86-109.21,32.28-159.85c20.68-48.9,50.29-92.82,87.99-130.52,37.7-37.7,81.62-67.31,130.52-87.99,41.66-17.62,85.43-28.09,130.5-31.26,15.86-1.11,29.35,11.43,29.35,27.33h0c0,14.35-11.07,26.31-25.39,27.32C215.94,82.88,69.88,237.1,69.88,424.79s159.64,355.87,355.87,355.87c92.83,0,181.89-36.43,248.07-100.73,10.27-9.97,26.54-10.21,37.22-.68h0c11.82,10.56,12.3,28.95.95,40.01-33.73,32.87-72.48,59.41-115.52,79.11-53.74,24.6-111.18,37.07-170.73,37.07Z"/>
          <path class="st57" d="M423.86,833.55c-55.43,0-109.21-10.86-159.85-32.28-48.9-20.68-92.82-50.29-130.52-87.99-37.7-37.7-67.31-81.62-87.99-130.52-21.42-50.64-32.28-104.43-32.28-159.85s10.86-109.21,32.28-159.85c20.68-48.9,50.29-92.82,87.99-130.52,37.7-37.7,81.62-67.31,130.52-87.99,41.66-17.62,85.43-28.09,130.5-31.26,15.86-1.11,29.35,11.43,29.35,27.33h0c0,14.35-11.07,26.31-25.39,27.32C214.05,81,67.99,235.22,67.99,422.9s159.64,355.87,355.87,355.87c92.83,0,181.89-36.43,248.07-100.73,10.27-9.97,26.54-10.21,37.22-.68h0c11.82,10.56,12.3,28.95.95,40.01-33.73,32.87-72.48,59.41-115.52,79.11-53.74,24.6-111.18,37.07-170.73,37.07Z"/>
          <path class="st15" d="M421.97,831.67c-55.43,0-109.21-10.86-159.85-32.28-48.9-20.68-92.82-50.29-130.52-87.99-37.7-37.7-67.31-81.62-87.99-130.52-21.42-50.64-32.28-104.43-32.28-159.85s10.86-109.21,32.28-159.85c20.68-48.9,50.29-92.82,87.99-130.52,37.7-37.7,81.62-67.31,130.52-87.99,41.66-17.62,85.43-28.09,130.5-31.26,15.86-1.11,29.35,11.43,29.35,27.33h0c0,14.35-11.07,26.31-25.39,27.32C212.16,79.11,66.11,233.33,66.11,421.02s159.64,355.87,355.87,355.87c92.83,0,181.89-36.43,248.07-100.73,10.27-9.97,26.54-10.21,37.22-.68h0c11.82,10.56,12.3,28.95.95,40.01-33.73,32.87-72.48,59.41-115.52,79.11-53.74,24.6-111.18,37.07-170.73,37.07Z"/>
          <path class="st59" d="M420.09,829.78c-55.43,0-109.21-10.86-159.85-32.28-48.9-20.68-92.82-50.29-130.52-87.99-37.7-37.7-67.31-81.62-87.99-130.52-21.42-50.64-32.28-104.43-32.28-159.85s10.86-109.21,32.28-159.85c20.68-48.9,50.29-92.82,87.99-130.52,37.7-37.7,81.62-67.31,130.52-87.99,41.66-17.62,85.43-28.09,130.5-31.26,15.86-1.11,29.35,11.43,29.35,27.33h0c0,14.35-11.07,26.31-25.39,27.32C210.27,77.22,64.22,231.44,64.22,419.13s159.64,355.87,355.87,355.87c92.83,0,181.89-36.43,248.07-100.73,10.27-9.97,26.54-10.21,37.22-.68h0c11.82,10.56,12.3,28.95.95,40.01-33.73,32.87-72.48,59.41-115.52,79.11-53.74,24.6-111.18,37.07-170.73,37.07Z"/>
          <path class="st19" d="M418.2,827.89c-55.43,0-109.21-10.86-159.85-32.28-48.9-20.68-92.82-50.29-130.52-87.99-37.7-37.7-67.31-81.62-87.99-130.52-21.42-50.64-32.28-104.43-32.28-159.85s10.86-109.21,32.28-159.85c20.68-48.9,50.29-92.82,87.99-130.52,37.7-37.7,81.62-67.31,130.52-87.99,41.66-17.62,85.43-28.09,130.5-31.26,15.86-1.11,29.35,11.43,29.35,27.33h0c0,14.35-11.07,26.31-25.39,27.32C208.39,75.34,62.33,229.55,62.33,417.24s159.64,355.87,355.87,355.87c92.83,0,181.89-36.43,248.07-100.73,10.27-9.97,26.54-10.21,37.22-.68h0c11.82,10.56,12.3,28.95.95,40.01-33.73,32.87-72.48,59.41-115.52,79.11-53.74,24.6-111.18,37.07-170.73,37.07Z"/>
          <path class="st62" d="M416.31,826c-55.43,0-109.21-10.86-159.85-32.28-48.9-20.68-92.82-50.29-130.52-87.99-37.7-37.7-67.31-81.62-87.99-130.52-21.42-50.64-32.28-104.43-32.28-159.85s10.86-109.21,32.28-159.85c20.68-48.9,50.29-92.82,87.99-130.52,37.7-37.7,81.62-67.31,130.52-87.99,41.66-17.62,85.43-28.09,130.5-31.26,15.86-1.11,29.35,11.43,29.35,27.33h0c0,14.35-11.07,26.31-25.39,27.32C206.5,73.45,60.45,227.67,60.45,415.35s159.64,355.87,355.87,355.87c92.83,0,181.89-36.43,248.07-100.73,10.27-9.97,26.54-10.21,37.22-.68h0c11.82,10.56,12.3,28.95.95,40.01-33.73,32.87-72.48,59.41-115.52,79.11-53.74,24.6-111.18,37.07-170.73,37.07Z"/>
          <path class="st28" d="M414.42,824.12c-55.43,0-109.21-10.86-159.85-32.28-48.9-20.68-92.82-50.29-130.52-87.99-37.7-37.7-67.31-81.62-87.99-130.52C14.64,522.68,3.77,468.89,3.77,413.47s10.86-109.21,32.28-159.85c20.68-48.9,50.29-92.82,87.99-130.52,37.7-37.7,81.62-67.31,130.52-87.99,41.66-17.62,85.43-28.09,130.5-31.26,15.86-1.11,29.35,11.43,29.35,27.33h0c0,14.35-11.07,26.31-25.39,27.32C204.61,71.56,58.56,225.78,58.56,413.47s159.64,355.87,355.87,355.87c92.83,0,181.89-36.43,248.07-100.73,10.27-9.97,26.54-10.21,37.22-.68h0c11.82,10.56,12.3,28.95.95,40.01-33.73,32.87-72.48,59.41-115.52,79.11-53.74,24.6-111.18,37.07-170.73,37.07Z"/>
          <path class="st43" d="M412.54,822.23c-55.43,0-109.21-10.86-159.85-32.28-48.9-20.68-92.82-50.29-130.52-87.99-37.7-37.7-67.31-81.62-87.99-130.52C12.75,520.79,1.89,467.01,1.89,411.58s10.86-109.21,32.28-159.85c20.68-48.9,50.29-92.82,87.99-130.52,37.7-37.7,81.62-67.31,130.52-87.99C294.34,15.59,338.12,5.12,383.19,1.96c15.86-1.11,29.35,11.43,29.35,27.33h0c0,14.35-11.07,26.31-25.39,27.32C202.72,69.67,56.67,223.89,56.67,411.58s159.64,355.87,355.87,355.87c92.83,0,181.89-36.43,248.07-100.73,10.27-9.97,26.54-10.21,37.22-.68h0c11.82,10.56,12.3,28.95.95,40.01-33.73,32.87-72.48,59.41-115.52,79.11-53.74,24.6-111.18,37.07-170.73,37.07Z"/>
          <path class="st32" d="M410.65,820.34c-55.43,0-109.21-10.86-159.85-32.28-48.9-20.68-92.82-50.29-130.52-87.99-37.7-37.7-67.31-81.62-87.99-130.52C10.86,518.9,0,465.12,0,409.69s10.86-109.21,32.28-159.85c20.68-48.9,50.29-92.82,87.99-130.52,37.7-37.7,81.62-67.31,130.52-87.99C292.45,13.71,336.23,3.23,381.3.07c15.86-1.11,29.35,11.43,29.35,27.33h0c0,14.35-11.07,26.31-25.39,27.32C200.84,67.79,54.78,222,54.78,409.69s159.64,355.87,355.87,355.87c92.83,0,181.89-36.43,248.07-100.73,10.27-9.97,26.54-10.21,37.22-.68h0c11.82,10.56,12.3,28.95.95,40.01-33.73,32.87-72.48,59.41-115.52,79.11-53.74,24.6-111.18,37.07-170.73,37.07Z"/>
        </g>
        <g>
          <path class="st29" d="M410.65,820.34c-55.43,0-109.21-10.86-159.85-32.28-48.9-20.68-92.82-50.29-130.52-87.99-37.7-37.7-67.31-81.62-87.99-130.52C10.86,518.9,0,465.12,0,409.69s10.86-109.21,32.28-159.85c20.68-48.9,50.29-92.82,87.99-130.52,37.7-37.7,81.62-67.31,130.52-87.99C292.45,13.71,336.23,3.23,381.3.07c15.86-1.11,29.35,11.43,29.35,27.33h0c0,14.35-11.07,26.31-25.39,27.32C200.84,67.79,54.78,222,54.78,409.69s159.64,355.87,355.87,355.87c92.83,0,181.89-36.43,248.07-100.73,10.27-9.97,26.54-10.21,37.22-.68h0c11.82,10.56,12.3,28.95.95,40.01-33.73,32.87-72.48,59.41-115.52,79.11-53.74,24.6-111.18,37.07-170.73,37.07Z"/>
          <path class="st5" d="M734.3,616.88c-13.29-7.24-18.18-23.88-10.94-37.16h0c7.24-13.28,23.87-18.18,37.16-10.94h0c13.29,7.24,18.18,23.88,10.94,37.16h0c-4.96,9.12-14.37,14.28-24.07,14.28h0c-4.43,0-8.92-1.08-13.09-3.34Z"/>
          <path class="st4" d="M773.05,537.7c-14.59-4.01-23.17-19.07-19.17-33.66h0c4-14.59,19.06-23.17,33.66-19.17h0c14.59,4.01,23.17,19.07,19.17,33.66h0c-3.34,12.16-14.37,20.15-26.4,20.15h0c-2.4,0-4.83-.32-7.26-.98Z"/>
          <path class="st7" d="M792.6,451.75c-15.12-.57-26.91-13.29-26.34-28.41h0c.57-15.12,13.28-26.91,28.4-26.34h0c15.12.57,26.91,13.29,26.34,28.4h0c-.56,14.77-12.7,26.36-27.36,26.36h0c-.35,0-.7,0-1.05-.02Z"/>
          <path class="st12" d="M760.07,341.89c-2.86-14.85,6.85-29.21,21.71-32.08h0c14.85-2.86,29.22,6.86,32.08,21.71h0c2.86,14.85-6.85,29.22-21.71,32.08h0c-1.75.34-3.5.5-5.22.5h0c-12.87,0-24.34-9.11-26.86-22.21Z"/>
          <path class="st11" d="M735.48,264.11h0c-6.2-13.8-.03-30.01,13.77-36.2h0c13.8-6.2,30.01-.03,36.2,13.77h0c6.19,13.8.03,30.01-13.77,36.2h0c-3.64,1.64-7.45,2.41-11.2,2.41h0c-10.46,0-20.44-6.02-25-16.18Z"/>
          <path class="st8" d="M693.71,193.99c-9.18-12.03-6.87-29.22,5.16-38.4h0c12.03-9.18,29.21-6.88,38.39,5.16h0c9.18,12.02,6.88,29.21-5.15,38.39h0c-4.96,3.79-10.81,5.62-16.6,5.62h0c-8.25,0-16.41-3.71-21.8-10.77Z"/>
          <path class="st10" d="M637.08,135.15c-11.67-9.63-13.31-26.9-3.68-38.57h0c9.63-11.66,26.9-13.31,38.57-3.68h0c11.66,9.64,13.31,26.9,3.68,38.56h0c-5.42,6.56-13.24,9.95-21.14,9.95h0c-6.14,0-12.32-2.05-17.42-6.27Z"/>
          <path class="st9" d="M568.59,90.7c-13.55-6.72-19.09-23.17-12.36-36.71h0c6.72-13.56,23.16-19.09,36.71-12.37h0c13.54,6.72,19.08,23.16,12.36,36.71h0c-4.78,9.64-14.48,15.22-24.56,15.22h0c-4.09,0-8.25-.92-12.16-2.86Z"/>
          <path class="st6" d="M491.79,63.11c-14.73-3.44-23.89-18.16-20.45-32.9h0c3.44-14.73,18.17-23.89,32.9-20.45h0c14.73,3.44,23.89,18.16,20.45,32.9h0c-2.95,12.64-14.21,21.17-26.65,21.17h0c-2.06,0-4.15-.23-6.24-.72Z"/>
        </g>
        <g>
          <path class="st18" d="M302.75,264.38c20.26,0,37.71,4.97,52.37,14.91,14.66,9.94,25.98,25.13,33.97,45.58,7.99,20.45,11.98,48.91,11.98,85.4s-4.06,65.55-12.17,86.06c-8.12,20.51-19.03,35.57-32.74,45.2-13.72,9.62-31.02,14.44-51.9,14.44s-38.44-4.84-52.65-14.53c-14.22-9.69-25.35-24.41-33.4-44.16-8.05-19.75-12.08-47.87-12.08-84.36,0-50.96,7.86-87.88,23.59-110.78,17.49-25.16,41.83-37.75,73.04-37.75ZM303.98,314.58c-8.92,0-16.83,2.86-23.73,8.59-6.91,5.73-12.18,15.57-15.82,29.54-3.64,13.97-5.46,34.41-5.46,61.34,0,35.1,4.17,59.35,12.52,72.75,8.35,13.4,19.18,20.1,32.49,20.1s22.97-6.35,30.51-19.06c9.17-15.35,13.75-41.02,13.75-77s-4.11-61.65-12.34-75.49c-8.22-13.84-18.86-20.76-31.92-20.76Z"/>
          <path class="st17" d="M485.25,339.87h-50.77c2.64-20.51,10-36.99,22.08-49.45,16.86-17.36,38.06-26.04,63.6-26.04,22.77,0,41.86,7.24,57.28,21.7,15.41,14.47,23.12,31.64,23.12,51.52,0,12.33-3.37,23.59-10.1,33.78-6.73,10.19-16.51,18.43-29.35,24.72,16.86,5.03,30.04,13.81,39.54,26.33,9.5,12.52,14.25,27.27,14.25,44.26,0,24.91-9.19,46.02-27.55,63.32-18.37,17.3-41.77,25.95-70.21,25.95-26.93,0-48.88-8.14-65.86-24.44-16.99-16.29-26.3-38.47-27.93-66.53h52.28c2.26,14.34,7.27,25.01,15,31.99,7.74,6.98,17.52,10.47,29.35,10.47s22.55-3.96,30.67-11.89c8.12-7.93,12.17-17.61,12.17-29.06,0-12.58-5.47-23.21-16.42-31.89-10.95-8.68-26.74-13.15-47.37-13.4v-45.29c12.71-1.01,22.18-2.99,28.4-5.94,6.23-2.95,11.07-7.01,14.53-12.17,3.46-5.16,5.19-10.63,5.19-16.42,0-7.55-2.64-13.81-7.93-18.78-5.28-4.97-12.21-7.45-20.76-7.45-7.55,0-14.41,2.3-20.57,6.89-6.17,4.59-10.38,10.54-12.64,17.83Z"/>
        </g>
      </g>
    </g>
  </g>
</svg>